<svg xmlns="http://www.w3.org/2000/svg" viewBox="0 0 64 64" role="img" aria-label="SB security favicon">
  <defs>
    <linearGradient id="g" x1="0" y1="0" x2="1" y2="1">
      <stop offset="0%" stop-color="#4ade80"/>
      <stop offset="100%" stop-color="#60a5fa"/>
    </linearGradient>
  </defs>
  <rect width="64" height="64" rx="14" fill="#0a0a0f"/>
  <path d="M32 8L50 16V30C50 41.5 42.7 51.2 32 56C21.3 51.2 14 41.5 14 30V16L32 8Z" fill="url(#g)" fill-opacity="0.2"/>
  <path d="M32 12L46 18V29.6C46 39.1 40.1 47.5 32 51.5C23.9 47.5 18 39.1 18 29.6V18L32 12Z" stroke="url(#g)" stroke-width="2.5" fill="none"/>
  <path d="M26 36C26 38.8 28.2 41 31 41H33C35.8 41 38 38.8 38 36C38 33.2 35.8 31 33 31H31C28.2 31 26 28.8 26 26C26 23.2 28.2 21 31 21H33C35.8 21 38 23.2 38 26" stroke="#e8e8ed" stroke-width="3" stroke-linecap="round" fill="none"/>
  <circle cx="32" cy="32" r="28" stroke="#232333" fill="none"/>
</svg>
